<svg width="48" height="43" viewBox="0 0 48 43" fill="none" xmlns="http://www.w3.org/2000/svg">
<path d="M34.3723 28.1272H40.3801C39.8947 28.6131 39.3946 29.0855 38.8798 29.5445C34.2776 33.6735 29.6059 37.7242 24.9575 41.8023C24.1389 42.5226 23.4718 42.5163 22.6427 41.8023C18.9454 38.5949 15.2417 35.3959 11.5613 32.1694C10.0756 30.8686 8.61519 29.5382 7.24316 28.1272H13.2237V16.1109C14.3495 17.8206 15.469 19.42 16.5696 20.9835C18.5245 23.7758 20.5468 26.6633 22.5228 30.0784L23.7959 32.2795L25.0585 30.0784C27.0344 26.6633 29.0567 23.7758 31.0116 20.9835C32.1122 19.4137 33.2317 17.8057 34.3575 16.1109L34.3723 28.1272Z" fill="#A30621"/>
<path d="M44.7487 22.8055C44.2142 23.6218 43.6453 24.4071 43.0421 25.1613H37.3183V5.43772L34.5721 10.1854C32.5983 13.6004 30.5739 16.488 28.619 19.2802C27.0407 21.5343 25.4204 23.8478 23.8021 26.4663C22.1818 23.8478 20.5615 21.5343 18.9832 19.2802C17.0283 16.488 15.006 13.6004 13.03 10.1854L10.2944 5.43984V25.1613H4.59166C4.3195 24.8265 4.05365 24.4869 3.79412 24.1422C2.29373 22.1529 1.07742 20.0069 0.488207 17.5578C0.265148 16.6257 0.15993 15.6639 0 14.7148V12.7424C0.0294607 12.5602 0.0673416 12.3802 0.0883849 12.1958C0.521878 8.25537 2.08329 4.89537 5.28188 2.48448C8.41734 0.118084 11.9526 -0.559846 15.7489 0.459168C18.5224 1.20489 20.6435 2.93997 22.3438 5.21528C22.8615 5.90592 23.316 6.64317 23.7853 7.33381C24.4356 6.41648 25.029 5.46526 25.736 4.60726C27.9372 1.93791 30.7044 0.260026 34.2039 0.0354613C36.9202 -0.131543 39.6155 0.607826 41.8722 2.13905C44.1289 3.67027 45.8211 5.90789 46.6868 8.50536C48.4123 13.5898 47.6653 18.3481 44.7487 22.8055Z" fill="#D8293D"/>
</svg>
